<?xml version="1.0" standalone="no"?><!DOCTYPE svg PUBLIC "-//W3C//DTD SVG 1.1//EN" "http://www.w3.org/Graphics/SVG/1.1/DTD/svg11.dtd"><svg t="1611650634180" class="icon" viewBox="0 0 1024 1024" version="1.1" xmlns="http://www.w3.org/2000/svg" p-id="1615" xmlns:xlink="http://www.w3.org/1999/xlink" width="200" height="200"><defs><style type="text/css"></style></defs><path d="M505 953c-60.5 0-119.1-11.8-174.4-35.2-53.4-22.6-101.3-54.9-142.4-96-41.1-41.1-73.4-89-96-142.4C68.8 624.1 57 565.5 57 505s11.8-119.1 35.2-174.4c22.6-53.4 54.9-101.3 96-142.4 41.1-41.1 89-73.4 142.4-96C385.9 68.8 444.5 57 505 57s119.1 11.8 174.4 35.2c53.4 22.6 101.3 54.9 142.4 96 41.1 41.1 73.4 89 96 142.4C941.2 385.9 953 444.5 953 505s-11.8 119.1-35.2 174.4c-22.6 53.4-54.9 101.3-96 142.4-41.1 41.1-89 73.4-142.4 96C624.1 941.2 565.5 953 505 953z m0-832c-211.7 0-384 172.3-384 384s172.3 384 384 384 384-172.3 384-384-172.3-384-384-384z" fill="#3688FF" p-id="1616"></path><path d="M425.7 730.3c-16.5 0-33-4.3-48-13-30.1-17.4-48-48.4-48-83.1V375.9c0-34.7 17.9-65.8 48-83.1 30.1-17.4 65.9-17.4 96 0l223.7 129.1c30.1 17.4 48 48.4 48 83.1s-17.9 65.8-48 83.1L473.7 717.3c-15 8.7-31.5 13-48 13z m0.2-386.6c-7.4 0-13.2 2.7-16.2 4.4-4.8 2.8-16 11-16 27.7v258.3c0 16.7 11.2 24.9 16 27.7 4.8 2.8 17.6 8.3 32 0l223.7-129.1c14.4-8.3 16-22.2 16-27.7s-1.6-19.4-16-27.7L441.7 348.1c-5.6-3.2-11-4.4-15.8-4.4z m255.5 216.7z" fill="#3688FF" p-id="1617"></path></svg>