<?xml version="1.0" standalone="no"?><!DOCTYPE svg PUBLIC "-//W3C//DTD SVG 1.1//EN" "http://www.w3.org/Graphics/SVG/1.1/DTD/svg11.dtd"><svg t="1611650576662" class="icon" viewBox="0 0 1024 1024" version="1.1" xmlns="http://www.w3.org/2000/svg" p-id="1343" xmlns:xlink="http://www.w3.org/1999/xlink" width="200" height="200"><defs><style type="text/css"></style></defs><path d="M488.6 921c-56.1 0-110.6-11-161.9-32.7-49.5-21-94-50.9-132.2-89.1s-68.2-82.7-89.1-132.2c-21.8-51.4-32.8-105.9-32.8-162s11-110.6 32.7-161.9c21-49.5 50.9-94 89.1-132.2s82.7-68.2 132.2-89.1C378 100 432.5 89 488.6 89c49.5 0 97.9 8.6 144 25.6 16.6 6.1 25.1 24.5 18.9 41.1-6.1 16.6-24.5 25.1-41.1 18.9-38.9-14.4-79.9-21.6-121.8-21.6-194.1 0-352 157.9-352 352s157.9 352 352 352 352-157.9 352-352c0-73.3-22.3-143.5-64.4-203.1-10.2-14.4-6.8-34.4 7.6-44.6 14.4-10.2 34.4-6.8 44.6 7.6 49.8 70.4 76.2 153.4 76.2 240 0 56.1-11 110.6-32.7 161.9-21 49.5-50.9 94-89.1 132.2s-82.7 68.2-132.2 89.1C599.2 910 544.8 921 488.6 921z" fill="#3688FF" p-id="1344"></path><path d="M754.5 409c-17.7 0-32-14.3-32-32v-95.2c0-41.2 33.5-74.6 74.6-74.6H904c17.7 0 32 14.3 32 32s-14.3 32-32 32H797.1c-5.9 0-10.6 4.8-10.6 10.6V377c0 17.7-14.4 32-32 32z" fill="#3688FF" p-id="1345"></path></svg>