<?xml version="1.0" standalone="no"?><!DOCTYPE svg PUBLIC "-//W3C//DTD SVG 1.1//EN" "http://www.w3.org/Graphics/SVG/1.1/DTD/svg11.dtd"><svg t="1611650514880" class="icon" viewBox="0 0 1024 1024" version="1.1" xmlns="http://www.w3.org/2000/svg" p-id="110137" xmlns:xlink="http://www.w3.org/1999/xlink" width="200" height="200"><defs><style type="text/css"></style></defs><path d="M825 921H185c-52.9 0-96-43.1-96-96V249c0-52.9 43.1-96 96-96 17.7 0 32 14.3 32 32s-14.3 32-32 32c-17.6 0-32 14.4-32 32v576c0 17.6 14.4 32 32 32h640c17.6 0 32-14.4 32-32V249c0-17.6-14.4-32-32-32-17.7 0-32-14.3-32-32s14.3-32 32-32c52.9 0 96 43.1 96 96v576c0 52.9-43.1 96-96 96z" fill="#3688FF" p-id="110138"></path><path d="M505 729c-17.7 0-32-14.3-32-32V185c0-17.7 14.3-32 32-32s32 14.3 32 32v512c0 17.7-14.3 32-32 32z" fill="#3688FF" p-id="110139"></path><path d="M697 345c-8.2 0-16.4-3.1-22.6-9.4L505 166.3 335.6 335.6c-12.5 12.5-32.8 12.5-45.3 0s-12.5-32.8 0-45.3l192-192c12.5-12.5 32.8-12.5 45.3 0l192 192c12.5 12.5 12.5 32.8 0 45.3-6.2 6.3-14.4 9.4-22.6 9.4z" fill="#3688FF" p-id="110140"></path></svg>